# xmcd CD database file
#
# Track frame offsets:
#	150
#	10876
#	23265
#	36900
#	49876
#	64730
#	81949
#	95356
#	107039
#	118782
#	139183
#	150269
#	159999
#	171431
#
# Disc length: 2722 seconds
#
# Revision: 0
# Processed by: cddbd v1.5.1PL0 Copyright (c) Steve Scherf et al.
# Submitted via: CDex 1.60beta1
#
DISCID=a90aa00e
DTITLE=The Four Freshmen - Live In Holland
DYEAR=2004
DGENRE=Jazz
TTITLE0=Young And Foolish
TTITLE1=Invitation
TTITLE2=I'm Gonna Go Fishin'
TTITLE3=Indian Summer
TTITLE4=Every Time We Say Goodbye
TTITLE5=Angel Eyes
TTITLE6=You Call It Madness, I Call It Love
TTITLE7=After You've Gone
TTITLE8=Day In Day Out
TTITLE9=Poinciana
TTITLE10=There Will Never Be Another You
TTITLE11=Day By Day
TTITLE12=It's A Blue World
TTITLE13=Route 66
EXTD=YEAR: 2004
EXTT0=
EXTT1=
EXTT2=
EXTT3=
EXTT4=
EXTT5=
EXTT6=
EXTT7=
EXTT8=
EXTT9=
EXTT10=
EXTT11=
EXTT12=
EXTT13=
PLAYORDER=
